<?xml version="1.0" encoding="UTF-8"?>
<svg id="Layer_2" data-name="Layer 2" xmlns="http://www.w3.org/2000/svg" viewBox="0 0 300 300">
  <defs>
    <style>
      .cls-1 {
        fill: #4278ff;
      }

      .cls-1, .cls-2, .cls-3 {
        stroke-width: 0px;
      }

      .cls-2 {
        fill: #5371b6;
      }

      .cls-3 {
        fill: #fff;
      }
    </style>
  </defs>
  <g id="Sketch">
    <g>
      <rect class="cls-1" x="0" y="0" width="300" height="300" rx="96.57" ry="96.57"/>
      <g>
        <g>
          <path class="cls-3" d="M122,77.81v-18.06c0-.67.55-1.22,1.22-1.22h.28c.67,0,1.22.55,1.22,1.22v18.06h-2.72Z"/>
          <path class="cls-3" d="M123.5,51.53h-.28c-4.54,0-8.22,3.68-8.22,8.22v25.07h16.72v-25.07c0-4.54-3.68-8.22-8.22-8.22h0Z"/>
        </g>
        <g>
          <path class="cls-3" d="M175.28,77.81v-18.06c0-.67.55-1.22,1.22-1.22h.28c.67,0,1.22.55,1.22,1.22v18.06h-2.72Z"/>
          <path class="cls-3" d="M176.78,51.53h-.28c-4.54,0-8.22,3.68-8.22,8.22v25.07h16.72v-25.07c0-4.54-3.68-8.22-8.22-8.22h0Z"/>
        </g>
        <path class="cls-3" d="M206.12,66.23h-112.24c-17.44,0-31.58,14.38-31.58,32.12v105.79c0,17.75,14.15,32.14,31.6,32.14h112.2c17.45,0,31.6-14.39,31.6-32.14v-105.79c0-17.74-14.14-32.12-31.58-32.12ZM223.46,204.13c0,9.74-7.79,17.66-17.36,17.66h-112.2c-9.57,0-17.36-7.92-17.36-17.66v-58.77h146.93v58.77Z"/>
        <g>
          <g>
            <path class="cls-3" d="M138.5,150.53c-.52.46-1.17.72-1.84.72h-5.96c-1.52,0-2.76,1.26-2.76,2.8v4.86c0,.79-.33,1.56-.91,2.09l-19.23,17.49c-1.22,1.1-1.91,2.68-1.91,4.35,0,1.54.6,3.01,1.67,4.12l7.34,7.45c1.07,1.1,2.53,1.72,4.05,1.72,1.64,0,3.19-.7,4.29-1.95l42.94-48.82h-21.99l-5.68,5.17Z"/>
            <path class="cls-3" d="M119.66,145.64c.31,0,.6-.1.83-.28h-1.66c.23.18.52.28.83.28Z"/>
            <path class="cls-3" d="M193.12,169.53l-8.91-2.59-2.55-9.06c-.17-.6-.71-1.02-1.33-1.02s-1.15.42-1.33,1.02l-2.55,9.06-8.91,2.59c-.59.18-1,.72-1,1.35s.41,1.17,1,1.35l8.91,2.59,2.55,9.06c.17.6.71,1.02,1.33,1.02s1.15-.42,1.33-1.02l2.55-9.06,8.91-2.59c.59-.18,1-.72,1-1.35s-.41-1.17-1-1.35Z"/>
          </g>
          <g>
            <path class="cls-2" d="M148.94,116.16c.62-.16,1.05-.72,1.05-1.37s-.43-1.21-1.05-1.37l-4.7-1.19-1.17-4.78c-.16-.63-.71-1.07-1.34-1.07s-1.19.44-1.34,1.07l-1.17,4.78-4.71,1.19c-.62.16-1.05.72-1.05,1.37s.43,1.21,1.05,1.37l4.71,1.19,1.17,4.78c.16.63.71,1.07,1.34,1.07s1.19-.44,1.34-1.07l1.17-4.78,4.7-1.19Z"/>
            <path class="cls-2" d="M120.99,144.62l2.55-9.06,8.91-2.59c.59-.18,1-.72,1-1.35s-.41-1.17-1-1.35l-8.91-2.59-2.55-9.06c-.17-.6-.71-1.02-1.33-1.02s-1.15.42-1.33,1.02l-2.55,9.06-8.91,2.59c-.59.18-1,.72-1,1.35s.41,1.17,1,1.35l8.91,2.59,2.55,9.06c.09.3.26.55.5.73h1.66c.23-.18.41-.43.5-.73Z"/>
            <path class="cls-2" d="M172.09,140.03h2.72c1.52,0,2.76-1.26,2.76-2.8v-3.75c0-.7.26-1.37.71-1.88l14.79-16.81c1.46-1.67,1.4-4.21-.16-5.78l-1.38-1.4c-1.55-1.58-4.05-1.65-5.69-.16l-41.66,37.91h21.99l3.87-4.4c.52-.6,1.26-.93,2.05-.93Z"/>
          </g>
        </g>
      </g>
    </g>
  </g>
</svg>