<?xml version="1.0" standalone="no"?>
<!DOCTYPE svg PUBLIC "-//W3C//DTD SVG 20010904//EN"
 "http://www.w3.org/TR/2001/REC-SVG-20010904/DTD/svg10.dtd">
<svg version="1.0" xmlns="http://www.w3.org/2000/svg"
 width="301.000000pt" height="301.000000pt" viewBox="0 0 301.000000 301.000000"
 preserveAspectRatio="xMidYMid meet">
<metadata>
Created by potrace 1.14, written by Peter Selinger 2001-2017
</metadata>
<g transform="translate(0.000000,301.000000) scale(0.100000,-0.100000)"
fill="#000000" stroke="none">
<path d="M838 2999 c-104 -15 -182 -40 -283 -89 -265 -128 -448 -353 -521
-640 -18 -70 -19 -119 -19 -765 0 -677 0 -691 22 -772 91 -340 356 -605 696
-696 81 -22 95 -22 772 -22 646 0 695 1 765 19 287 73 511 255 641 521 94 193
92 179 96 900 3 428 1 657 -7 714 -57 428 -397 771 -823 830 -93 13 -1251 13
-1339 0z m452 -519 c21 -11 40 -60 40 -101 l0 -29 180 0 180 0 0 45 c0 59 32
95 85 95 52 0 85 -36 85 -93 l0 -45 138 -5 c95 -3 152 -10 184 -22 70 -25 139
-92 174 -167 l29 -63 0 -600 0 -600 -26 -55 c-36 -78 -80 -124 -151 -160 l-61
-30 -632 0 c-713 0 -687 -3 -774 76 -29 26 -62 69 -78 102 l-28 57 0 610 0
610 26 55 c34 70 89 126 159 158 49 23 71 26 198 30 l142 5 0 45 c0 58 28 92
77 92 19 0 43 -4 53 -10z"/>
<path d="M1405 1916 c-10 -23 -23 -36 -37 -38 -30 -4 -30 -32 1 -36 15 -3 27
-14 34 -33 14 -37 32 -37 45 0 7 19 18 31 34 33 30 4 30 32 0 36 -14 2 -27 15
-37 38 -8 19 -17 34 -20 34 -3 0 -12 -15 -20 -34z"/>
<path d="M1665 1753 l-218 -198 108 -5 109 -5 -218 -247 c-253 -288 -245 -284
-328 -198 -73 76 -70 84 62 210 101 96 110 108 110 142 0 39 11 48 63 48 19 0
44 10 62 25 l30 24 -114 1 c-113 0 -113 0 -107 23 4 12 9 34 13 50 4 22 14 30
52 41 63 18 64 39 4 57 -45 13 -48 17 -61 62 -8 27 -19 47 -27 47 -8 0 -19
-20 -27 -47 -13 -45 -16 -49 -61 -62 -60 -18 -59 -39 4 -57 38 -11 48 -19 52
-41 4 -16 9 -38 13 -50 l6 -23 -211 0 -212 0 3 -312 c3 -354 6 -366 81 -416
l41 -27 590 -3 c325 -2 606 0 624 3 40 7 101 59 118 102 11 25 14 105 14 343
l0 310 -287 0 -288 1 33 29 c18 17 43 30 56 30 25 0 36 17 36 55 0 14 29 56
80 113 44 50 80 99 80 110 0 20 -39 62 -57 62 -6 0 -109 -89 -228 -197z m173
-366 c12 -44 16 -48 60 -60 26 -8 47 -20 47 -27 0 -7 -21 -19 -47 -27 -44 -12
-48 -16 -60 -60 -18 -63 -34 -65 -51 -6 -13 43 -18 50 -58 64 -53 20 -56 40
-9 54 51 15 56 20 69 71 14 56 31 53 49 -9z"/>
</g>
</svg>
