<?xml version="1.0" standalone="no"?>
<!DOCTYPE svg PUBLIC "-//W3C//DTD SVG 20010904//EN"
 "http://www.w3.org/TR/2001/REC-SVG-20010904/DTD/svg10.dtd">
<svg version="1.0" xmlns="http://www.w3.org/2000/svg"
 width="301.000000pt" height="301.000000pt" viewBox="0 0 301.000000 301.000000"
 preserveAspectRatio="xMidYMid meet">
<metadata>
Created by potrace 1.14, written by Peter Selinger 2001-2017
</metadata>
<g transform="translate(0.000000,301.000000) scale(0.100000,-0.100000)"
fill="#000000" stroke="none">
<path d="M838 2999 c-104 -15 -182 -40 -283 -89 -265 -128 -448 -353 -521
-640 -18 -70 -19 -119 -19 -765 0 -677 0 -691 22 -772 91 -340 356 -605 696
-696 81 -22 95 -22 772 -22 646 0 695 1 765 19 287 73 511 255 641 521 94 193
92 179 96 900 3 428 1 657 -7 714 -57 428 -397 771 -823 830 -93 13 -1251 13
-1339 0z m437 -514 c38 -15 55 -46 55 -101 l0 -34 180 0 180 0 0 44 c0 62 31
98 85 98 53 0 85 -36 85 -96 l0 -44 143 -3 c131 -4 146 -6 199 -32 80 -39 142
-111 168 -194 19 -62 20 -92 20 -622 0 -602 -2 -627 -54 -710 -35 -55 -101
-107 -160 -128 -47 -17 -102 -18 -676 -18 -621 0 -625 0 -672 22 -66 30 -141
104 -169 166 l-24 52 0 610 0 610 26 56 c34 71 87 125 158 158 51 23 70 26
199 29 l142 4 0 47 c0 54 24 85 78 100 1 1 18 -6 37 -14z"/>
<path d="M1665 1753 l-218 -198 107 -3 c58 -1 106 -5 106 -7 0 -13 -433 -494
-448 -498 -26 -5 -64 17 -105 62 -60 66 -55 80 69 197 98 93 108 105 113 145
6 44 6 44 51 49 25 3 59 15 75 27 l30 22 -112 1 c-62 0 -113 3 -113 6 0 3 5
25 11 50 11 41 15 45 58 58 63 18 64 39 4 57 -44 13 -48 17 -62 62 -8 26 -20
47 -26 47 -6 0 -18 -21 -26 -47 -14 -45 -18 -49 -62 -62 -60 -18 -59 -39 4
-57 38 -11 48 -19 52 -41 4 -16 9 -38 13 -50 l6 -23 -206 0 -206 0 0 -316 c0
-308 1 -317 22 -356 12 -21 38 -49 58 -61 35 -22 37 -22 633 -25 570 -2 600
-2 641 17 24 10 56 36 72 57 l29 37 3 324 3 323 -288 0 -288 1 33 29 c18 17
43 30 56 30 25 0 36 17 36 55 0 15 28 56 80 114 44 50 80 100 80 110 0 18 -43
61 -60 61 -5 0 -106 -89 -225 -197z m173 -366 c12 -44 16 -48 60 -60 60 -18
60 -38 1 -54 -42 -12 -47 -17 -60 -61 -19 -60 -40 -61 -54 -2 -10 41 -14 46
-55 60 -70 23 -68 33 10 63 30 12 37 21 48 61 15 58 32 56 50 -7z"/>
<path d="M1403 1911 c-7 -19 -19 -30 -34 -33 -13 -1 -24 -10 -24 -18 0 -8 11
-17 24 -18 15 -3 27 -14 34 -33 14 -37 32 -37 45 0 7 19 18 31 34 33 13 2 23
10 23 18 0 8 -10 16 -23 18 -16 2 -27 14 -34 33 -13 37 -31 37 -45 0z"/>
</g>
</svg>
