<svg width="56" height="56" viewBox="0 0 56 56" fill="none" xmlns="http://www.w3.org/2000/svg">
<circle cx="28" cy="28" r="27.25" stroke="#8EBAFF" stroke-width="1.5"/>
<path d="M17 21.7143C17 20.2172 18.1771 19 19.625 19H35.375C36.8229 19 38 20.2172 38 21.7143V35.2857C38 36.7828 36.8229 38 35.375 38H19.625C18.1771 38 17 36.7828 17 35.2857V21.7143ZM30.2809 26.231C30.0963 25.9511 29.7928 25.7857 29.4688 25.7857C29.1447 25.7857 28.8371 25.9511 28.6566 26.231L25.0883 31.6426L24.0014 30.2388C23.8127 29.9971 23.5297 29.8571 23.2344 29.8571C22.9391 29.8571 22.652 29.9971 22.4674 30.2388L19.8424 33.6317C19.6045 33.9371 19.5594 34.3569 19.7234 34.7089C19.8875 35.0609 20.232 35.2857 20.6094 35.2857H24.5469H25.8594H34.3906C34.7557 35.2857 35.092 35.0779 35.2602 34.7429C35.4283 34.4078 35.4078 34.0049 35.2027 33.6953L30.2809 26.231ZM21.5938 25.7857C22.1159 25.7857 22.6167 25.5712 22.9859 25.1895C23.3551 24.8077 23.5625 24.2899 23.5625 23.75C23.5625 23.2101 23.3551 22.6923 22.9859 22.3105C22.6167 21.9288 22.1159 21.7143 21.5938 21.7143C21.0716 21.7143 20.5708 21.9288 20.2016 22.3105C19.8324 22.6923 19.625 23.2101 19.625 23.75C19.625 24.2899 19.8324 24.8077 20.2016 25.1895C20.5708 25.5712 21.0716 25.7857 21.5938 25.7857Z" fill="#8EBAFF"/>
</svg>
