<svg width="17" height="17" viewBox="0 0 17 17" fill="none" xmlns="http://www.w3.org/2000/svg">
<g clip-path="url(#clip0_153_1235)">
<mask id="mask0_153_1235" style="mask-type:luminance" maskUnits="userSpaceOnUse" x="1" y="0" width="15" height="18">
<path d="M1.59375 0H15.4379V17.001H1.59375V0Z" fill="white"/>
</mask>
<g mask="url(#mask0_153_1235)">
<path d="M13.1543 9.03284C13.1348 6.88208 14.9125 5.8487 14.9926 5.79791C13.9924 4.33477 12.4374 4.13552 11.8826 4.11207C10.5602 3.97729 9.30017 4.8915 8.62818 4.8915C7.95619 4.8915 6.92086 4.13161 5.82301 4.1531C4.37941 4.17459 3.0491 4.99113 2.30483 6.28432C0.806531 8.88242 1.92196 12.7366 3.38314 14.8483C4.09811 15.8797 4.94786 17.042 6.0672 16.999C7.14551 16.9561 7.55183 16.3017 8.85283 16.3017C10.1538 16.3017 10.5211 16.999 11.658 16.9776C12.8164 16.9541 13.5509 15.9227 14.26 14.8874C15.0785 13.6899 15.4165 12.5295 15.436 12.469C15.4106 12.4592 13.1778 11.6036 13.1543 9.03284" fill="#FCFCFC"/>
</g>
<path d="M11.0153 2.71531C11.6091 1.99644 12.0096 0.996264 11.9002 0C11.0446 0.0351623 10.0092 0.57041 9.39584 1.28928C8.84692 1.92416 8.36441 2.94191 8.49529 3.91864C9.44663 3.99287 10.4214 3.43223 11.0153 2.71531Z" fill="#FCFCFC"/>
</g>
<defs>
<clipPath id="clip0_153_1235">
<rect width="17" height="17" fill="white"/>
</clipPath>
</defs>
</svg>
