<svg width="13" height="13" viewBox="0 0 13 13" fill="none" xmlns="http://www.w3.org/2000/svg">
<path d="M13 6.5C13 6.52285 13 6.5457 13 6.56855C12.9898 7.49531 12.1469 8.125 11.2201 8.125H8.73438C8.06152 8.125 7.51562 8.6709 7.51562 9.34375C7.51562 9.43008 7.52578 9.51387 7.54102 9.59512C7.59434 9.8541 7.70605 10.1029 7.81523 10.3543C7.97012 10.7047 8.12246 11.0525 8.12246 11.4207C8.12246 12.2281 7.57402 12.9619 6.7666 12.9949C6.67773 12.9975 6.58887 13 6.49746 13C2.90977 13 0 10.0902 0 6.5C0 2.90977 2.90977 0 6.5 0C10.0902 0 13 2.90977 13 6.5ZM3.25 7.3125C3.25 7.09701 3.1644 6.89035 3.01202 6.73798C2.85965 6.5856 2.65299 6.5 2.4375 6.5C2.22201 6.5 2.01535 6.5856 1.86298 6.73798C1.7106 6.89035 1.625 7.09701 1.625 7.3125C1.625 7.52799 1.7106 7.73465 1.86298 7.88702C2.01535 8.0394 2.22201 8.125 2.4375 8.125C2.65299 8.125 2.85965 8.0394 3.01202 7.88702C3.1644 7.73465 3.25 7.52799 3.25 7.3125ZM3.25 4.875C3.46549 4.875 3.67215 4.7894 3.82452 4.63702C3.9769 4.48465 4.0625 4.27799 4.0625 4.0625C4.0625 3.84701 3.9769 3.64035 3.82452 3.48798C3.67215 3.3356 3.46549 3.25 3.25 3.25C3.03451 3.25 2.82785 3.3356 2.67548 3.48798C2.5231 3.64035 2.4375 3.84701 2.4375 4.0625C2.4375 4.27799 2.5231 4.48465 2.67548 4.63702C2.82785 4.7894 3.03451 4.875 3.25 4.875ZM7.3125 2.4375C7.3125 2.22201 7.2269 2.01535 7.07452 1.86298C6.92215 1.7106 6.71549 1.625 6.5 1.625C6.28451 1.625 6.07785 1.7106 5.92548 1.86298C5.7731 2.01535 5.6875 2.22201 5.6875 2.4375C5.6875 2.65299 5.7731 2.85965 5.92548 3.01202C6.07785 3.1644 6.28451 3.25 6.5 3.25C6.71549 3.25 6.92215 3.1644 7.07452 3.01202C7.2269 2.85965 7.3125 2.65299 7.3125 2.4375ZM9.75 4.875C9.96549 4.875 10.1722 4.7894 10.3245 4.63702C10.4769 4.48465 10.5625 4.27799 10.5625 4.0625C10.5625 3.84701 10.4769 3.64035 10.3245 3.48798C10.1722 3.3356 9.96549 3.25 9.75 3.25C9.53451 3.25 9.32785 3.3356 9.17548 3.48798C9.0231 3.64035 8.9375 3.84701 8.9375 4.0625C8.9375 4.27799 9.0231 4.48465 9.17548 4.63702C9.32785 4.7894 9.53451 4.875 9.75 4.875Z" fill="#1E1E20"/>
</svg>
