<svg width="12" height="14" viewBox="0 0 12 14" fill="none" xmlns="http://www.w3.org/2000/svg">
<path d="M3.62143 0.949414C3.76607 0.672656 4.06339 0.5 4.3875 0.5H7.6125C7.93661 0.5 8.23393 0.672656 8.37857 0.949414L8.57143 1.3125H11.1429C11.617 1.3125 12 1.67559 12 2.125C12 2.57441 11.617 2.9375 11.1429 2.9375H0.857143C0.383036 2.9375 0 2.57441 0 2.125C0 1.67559 0.383036 1.3125 0.857143 1.3125H3.42857L3.62143 0.949414ZM0.857143 3.75H11.1429V11.875C11.1429 12.7713 10.3741 13.5 9.42857 13.5H2.57143C1.62589 13.5 0.857143 12.7713 0.857143 11.875V3.75ZM3.42857 5.375C3.19286 5.375 3 5.55781 3 5.78125V11.4688C3 11.6922 3.19286 11.875 3.42857 11.875C3.66429 11.875 3.85714 11.6922 3.85714 11.4688V5.78125C3.85714 5.55781 3.66429 5.375 3.42857 5.375ZM6 5.375C5.76429 5.375 5.57143 5.55781 5.57143 5.78125V11.4688C5.57143 11.6922 5.76429 11.875 6 11.875C6.23571 11.875 6.42857 11.6922 6.42857 11.4688V5.78125C6.42857 5.55781 6.23571 5.375 6 5.375ZM8.57143 5.375C8.33571 5.375 8.14286 5.55781 8.14286 5.78125V11.4688C8.14286 11.6922 8.33571 11.875 8.57143 11.875C8.80714 11.875 9 11.6922 9 11.4688V5.78125C9 5.55781 8.80714 5.375 8.57143 5.375Z" fill="#F24130"/>
</svg>
