<svg width="34" height="18" viewBox="0 0 34 18" fill="none" xmlns="http://www.w3.org/2000/svg">
<path d="M20.6833 10.2713C19.7722 9.56851 19.7722 8.42711 20.6833 7.72428L30.013 0.52728C30.6836 0.00999591 31.6822 -0.141816 32.5568 0.139317C33.4315 0.42045 34 1.07268 34 1.80362V16.1976C34 16.9229 33.4315 17.5808 32.5568 17.8619C31.6822 18.1431 30.6836 17.9856 30.013 17.474L20.6833 10.277V10.2713Z" fill="#141C57"/>
<path d="M0.683327 10.2713C-0.227776 9.56851 -0.227776 8.42711 0.683327 7.72428L10.013 0.52728C10.6836 0.00999591 11.6822 -0.141816 12.5568 0.139317C13.4315 0.42045 14 1.07268 14 1.80362V16.1976C14 16.9229 13.4315 17.5808 12.5568 17.8619C11.6822 18.1431 10.6836 17.9856 10.013 17.474L0.683327 10.277V10.2713Z" fill="#141C57"/>
</svg>
