<svg width="14" height="14" viewBox="0 0 14 14" fill="none" xmlns="http://www.w3.org/2000/svg">
<path d="M11.2334 6.32416L11.5427 6.01486L10.6146 5.08697L8.91435 3.38721L7.98621 2.45932L7.67682 2.76862L7.05806 3.38721L1.60417 8.83959C1.31943 9.12425 1.11134 9.47734 0.996353 9.86328L0.0271373 13.1588C-0.0413102 13.3887 0.0216615 13.6378 0.194149 13.8075C0.366637 13.9772 0.613047 14.0402 0.843031 13.9745L4.13672 13.0055C4.52277 12.8906 4.87595 12.6825 5.1607 12.3979L10.6146 6.94549L11.2334 6.32416ZM4.38039 10.9335L4.13125 11.5548C4.02173 11.6397 3.89853 11.7026 3.76711 11.7437L1.62607 12.3732L2.25579 10.2355C2.29412 10.1014 2.35983 9.97824 2.4447 9.87149L3.0662 9.62241V10.4983C3.0662 10.7392 3.26333 10.9362 3.50427 10.9362H4.38039V10.9335ZM9.93011 0.513214L9.53586 0.910099L8.91709 1.52869L8.60497 1.83799L9.53312 2.76588L11.2334 4.46564L12.1615 5.39353L12.4709 5.08424L13.0896 4.46564L13.4866 4.06876C14.1711 3.38447 14.1711 2.27593 13.4866 1.59165L12.4106 0.513214C11.7262 -0.171071 10.6173 -0.171071 9.93285 0.513214H9.93011ZM8.63235 5.11161L4.68978 9.05309C4.52003 9.22279 4.24076 9.22279 4.07101 9.05309C3.90126 8.88339 3.90126 8.6042 4.07101 8.43449L8.01359 4.49301C8.18334 4.32331 8.4626 4.32331 8.63235 4.49301C8.8021 4.66272 8.8021 4.94191 8.63235 5.11161Z" fill="#4478FF"/>
</svg>
