<svg width="22" height="22" viewBox="0 0 22 22" fill="none" xmlns="http://www.w3.org/2000/svg">
<path d="M19.9367 0.263024C20.3448 -0.102195 20.9679 -0.0850079 21.3546 0.301695L21.6983 0.64543C22.085 1.03213 22.1022 1.65515 21.737 2.06334L18.0504 6.18387C17.9387 6.30847 17.8742 6.47175 17.8742 6.64362V7.56311C17.8742 7.94122 17.5649 8.25058 17.1868 8.25058H16.5079C16.3103 8.25058 16.1255 8.33222 15.9966 8.4783L4.32677 21.5231C4.05178 21.8281 3.66508 22 3.25689 22C2.87879 22 2.51357 21.8496 2.24717 21.5789L0.416779 19.7528C0.150384 19.4821 0 19.1212 0 18.7431C0 18.3349 0.171868 17.9482 0.476933 17.6775L5.27204 13.3894C5.41813 13.2605 5.49977 13.0715 5.49977 12.8781V11.6879C5.49977 11.3098 5.80913 11.0005 6.18724 11.0005H7.6739C7.84147 11.0005 8.00474 10.936 8.13364 10.8243L19.9367 0.263024ZM18.5617 12.3754C18.7164 12.3754 18.8496 12.4785 18.8926 12.6246L19.5285 14.846L21.7499 15.4819C21.896 15.5249 21.9991 15.6581 21.9991 15.8128C21.9991 15.9674 21.896 16.1006 21.7499 16.1436L19.5285 16.7795L18.8926 19.0009C18.8496 19.147 18.7164 19.2501 18.5617 19.2501C18.407 19.2501 18.2738 19.147 18.2309 19.0009L17.595 16.7795L15.3736 16.1436C15.2275 16.1006 15.1244 15.9674 15.1244 15.8128C15.1244 15.6581 15.2275 15.5249 15.3736 15.4819L17.595 14.846L18.2309 12.6246C18.2738 12.4785 18.407 12.3754 18.5617 12.3754ZM3.7682 3.00002L4.40411 5.22141L6.6255 5.85732C6.77159 5.90029 6.87471 6.03348 6.87471 6.18817C6.87471 6.34285 6.77159 6.47604 6.6255 6.51901L4.40411 7.15492L3.7682 9.37631C3.72523 9.5224 3.59204 9.62552 3.43736 9.62552C3.28267 9.62552 3.14948 9.5224 3.10651 9.37631L2.4706 7.15492L0.249208 6.51901C0.103121 6.47604 0 6.34285 0 6.18817C0 6.03348 0.103121 5.90029 0.249208 5.85732L2.4706 5.22141L3.10651 3.00002C3.14948 2.85393 3.28267 2.75081 3.43736 2.75081C3.59204 2.75081 3.72523 2.85393 3.7682 3.00002ZM8.93712 0.000926011C9.0961 0.000926011 9.2336 0.108343 9.27227 0.263024L9.56444 1.43602L10.7374 1.7282C10.8921 1.76687 10.9995 1.90436 10.9995 2.06334C10.9995 2.22232 10.8921 2.35981 10.7374 2.39848L9.56444 2.69066L9.27227 3.86365C9.2336 4.01834 9.0961 4.12575 8.93712 4.12575C8.77815 4.12575 8.64065 4.01834 8.60198 3.86365L8.30981 2.69066L7.13681 2.39848C6.98213 2.35981 6.87471 2.22232 6.87471 2.06334C6.87471 1.90436 6.98213 1.76687 7.13681 1.7282L8.30981 1.43602L8.60198 0.263024C8.64065 0.108343 8.77815 0.000926011 8.93712 0.000926011Z" fill="#141C57"/>
</svg>
