<svg width="21" height="19" viewBox="0 0 21 19" fill="none" xmlns="http://www.w3.org/2000/svg">
<path d="M1.92857 0.5C0.866204 0.5 0 1.35299 0 2.41667C0 3.48034 0.866204 4.33333 1.92857 4.33333H19.0714C20.1338 4.33333 21 3.48034 21 2.41667C21 1.35299 20.1338 0.5 19.0714 0.5H1.92857Z" fill="#1E1E20"/>
<path d="M1.92857 7.58333C0.866203 7.58333 0 8.43633 0 9.5C0 10.5637 0.866204 11.4167 1.92857 11.4167H19.0714C20.1338 11.4167 21 10.5637 21 9.5C21 8.43633 20.1338 7.58333 19.0714 7.58333H1.92857Z" fill="#1E1E20"/>
<path d="M19.0714 18.5C20.1338 18.5 21 17.647 21 16.5833C21 15.5197 20.1338 14.6667 19.0714 14.6667H1.92857C0.866203 14.6667 0 15.5197 0 16.5833C0 17.647 0.866203 18.5 1.92857 18.5H19.0714Z" fill="#1E1E20"/>
</svg>
