   <svg
        width="13"
        height="15"
        fill="none"
        xmlns="http://www.w3.org/2000/svg"
      >
        <path
          d="M6.5 0a.932.932 0 0 0-.93.938V1.5c-2.117.434-3.713 2.326-3.713 4.594v.55a5.67 5.67 0 0 1-1.408 3.739l-.215.243a.948.948 0 0 0-.153 1.008.927.927 0 0 0 .847.553h11.143a.93.93 0 0 0 .847-.553.942.942 0 0 0-.154-1.008l-.214-.243a5.664 5.664 0 0 1-1.408-3.738v-.551c0-2.268-1.596-4.16-3.714-4.594V.937A.932.932 0 0 0 6.499 0Zm1.314 14.452c.348-.351.542-.829.542-1.327H4.642c0 .498.195.976.543 1.327a1.849 1.849 0 0 0 2.629 0Z"
          fill="#4C7CF6"
        />
      </svg>