<svg width="13" height="15" viewBox="0 0 13 15" fill="none" xmlns="http://www.w3.org/2000/svg">
<path d="M6.49936 0C5.98575 0 5.5708 0.418945 5.5708 0.9375V1.5C3.45252 1.93359 1.85656 3.82617 1.85656 6.09375V6.64453C1.85656 8.02148 1.35456 9.35156 0.449215 10.3828L0.234486 10.626C-0.00926068 10.9014 -0.0672957 11.2969 0.0806935 11.6338C0.228683 11.9707 0.562384 12.1875 0.928004 12.1875H12.0707C12.4363 12.1875 12.7671 11.9707 12.918 11.6338C13.0689 11.2969 13.008 10.9014 12.7642 10.626L12.5495 10.3828C11.6442 9.35156 11.1422 8.02441 11.1422 6.64453V6.09375C11.1422 3.82617 9.5462 1.93359 7.42792 1.5V0.9375C7.42792 0.418945 7.01297 0 6.49936 0ZM7.81385 14.4521C8.16206 14.1006 8.35648 13.623 8.35648 13.125H6.49936H4.64224C4.64224 13.623 4.83666 14.1006 5.18487 14.4521C5.53308 14.8037 6.00606 15 6.49936 15C6.99266 15 7.46564 14.8037 7.81385 14.4521Z" fill="#1E1E20"/>
</svg>
