<svg width="17" height="17" viewBox="0 0 17 17" fill="none" xmlns="http://www.w3.org/2000/svg">
<path fill-rule="evenodd" clip-rule="evenodd" d="M10.2308 1.73077C10.2308 0.773858 9.45691 0 8.5 0C7.54309 0 6.76923 0.773858 6.76923 1.73077V6.76923H1.73077C0.773858 6.76923 0 7.54309 0 8.5C0 9.45691 0.773858 10.2308 1.73077 10.2308H6.76923V15.2692C6.76923 16.2261 7.54309 17 8.5 17C9.45691 17 10.2308 16.2261 10.2308 15.2692V10.2308H15.2692C16.2261 10.2308 17 9.45691 17 8.5C17 7.54309 16.2261 6.76923 15.2692 6.76923H10.2308V1.73077Z" fill="#9191A6"/>
</svg>
