<svg width="17" height="18" viewBox="0 0 17 18" fill="none" xmlns="http://www.w3.org/2000/svg">
<path fill-rule="evenodd" clip-rule="evenodd" d="M10.2308 2.23077C10.2308 1.27386 9.45691 0.5 8.5 0.5C7.54309 0.5 6.76923 1.27386 6.76923 2.23077V7.26923H1.73077C0.773858 7.26923 0 8.04309 0 9C0 9.95691 0.773858 10.7308 1.73077 10.7308H6.76923V15.7692C6.76923 16.7261 7.54309 17.5 8.5 17.5C9.45691 17.5 10.2308 16.7261 10.2308 15.7692V10.7308H15.2692C16.2261 10.7308 17 9.95691 17 9C17 8.04309 16.2261 7.26923 15.2692 7.26923H10.2308V2.23077Z" fill="#1E1E20"/>
</svg>
