<svg width="22" height="22" viewBox="0 0 22 22" fill="none" xmlns="http://www.w3.org/2000/svg">
<path d="M21.4035 0.240739C21.8375 0.541458 22.0652 1.06127 21.9836 1.58109L19.2336 19.4524C19.1691 19.8691 18.9156 20.2342 18.546 20.4405C18.1765 20.6467 17.7339 20.6724 17.3429 20.5092L12.2038 18.3741L9.26036 21.5574C8.87793 21.9741 8.27636 22.1116 7.74783 21.9054C7.21931 21.6992 6.87555 21.188 6.87555 20.6209V17.0294C6.87555 16.8576 6.94001 16.6944 7.05602 16.5698L14.2577 8.71242C14.5069 8.44177 14.4983 8.02506 14.2405 7.7673C13.9827 7.50955 13.5659 7.49236 13.2952 7.73723L4.5552 15.5001L0.761006 13.6013C0.30553 13.3736 0.0133384 12.9182 0.00044755 12.4113C-0.0124433 11.9043 0.253967 11.4318 0.692255 11.1783L19.9426 0.180596C20.4023 -0.0814594 20.9695 -0.0556835 21.4035 0.240739Z" fill="#FCFCFC"/>
</svg>
