<svg width="22" height="24" viewBox="0 0 22 24" fill="none" xmlns="http://www.w3.org/2000/svg">
<path d="M21.939 7.8109C22.0849 8.21879 21.9618 8.67357 21.6472 8.96425L19.6733 10.8115C19.7234 11.2006 19.7508 11.5991 19.7508 12.0023C19.7508 12.4055 19.7234 12.8041 19.6733 13.1932L21.6472 15.0404C21.9618 15.3311 22.0849 15.7859 21.939 16.1938C21.7384 16.7517 21.4968 17.2862 21.2187 17.8019L21.0044 18.1817C20.7036 18.6974 20.3662 19.185 19.9969 19.6445C19.728 19.982 19.2812 20.0945 18.88 19.9633L16.3407 19.1334C15.7298 19.6163 15.0551 20.0195 14.3348 20.3243L13.765 23.0014C13.6738 23.428 13.3547 23.7656 12.9352 23.8359C12.3061 23.9437 11.6588 24 10.9977 24C10.3367 24 9.68932 23.9437 9.0602 23.8359C8.64078 23.7656 8.32166 23.428 8.23048 23.0014L7.66063 20.3243C6.94032 20.0195 6.26561 19.6163 5.65472 19.1334L3.11999 19.968C2.71881 20.0992 2.27204 19.982 2.00307 19.6492C1.6338 19.1897 1.29644 18.7021 0.995555 18.1864L0.781288 17.8066C0.503197 17.2909 0.261577 16.7564 0.0609866 16.1985C-0.0848973 15.7906 0.0381923 15.3358 0.352754 15.0451L2.32675 13.1979C2.2766 12.8041 2.24925 12.4055 2.24925 12.0023C2.24925 11.5991 2.2766 11.2006 2.32675 10.8115L0.352754 8.96425C0.0381923 8.67357 -0.0848973 8.21879 0.0609866 7.8109C0.261577 7.25298 0.503197 6.7185 0.781288 6.20277L0.995555 5.82301C1.29644 5.30729 1.6338 4.81969 2.00307 4.36023C2.27204 4.02266 2.71881 3.91014 3.11999 4.04141L5.65928 4.87126C6.27017 4.38836 6.94488 3.98515 7.66518 3.68041L8.23504 1.00332C8.32622 0.576675 8.64534 0.239109 9.06476 0.168783C9.69388 0.056261 10.3412 0 11.0023 0C11.6633 0 12.3107 0.056261 12.9398 0.164095C13.3592 0.234421 13.6783 0.571987 13.7695 0.998632L14.3394 3.67572C15.0597 3.98046 15.7344 4.38367 16.3453 4.86658L18.8846 4.03673C19.2857 3.90545 19.7325 4.02266 20.0015 4.35554C20.3708 4.815 20.7081 5.3026 21.009 5.81832L21.2233 6.19809C21.5014 6.71381 21.743 7.24829 21.9436 7.80621L21.939 7.8109ZM11.0023 15.7531C11.9696 15.7531 12.8972 15.3579 13.5812 14.6545C14.2651 13.9511 14.6494 12.9971 14.6494 12.0023C14.6494 11.0076 14.2651 10.0536 13.5812 9.35018C12.8972 8.64678 11.9696 8.25161 11.0023 8.25161C10.035 8.25161 9.10736 8.64678 8.42339 9.35018C7.73943 10.0536 7.35518 11.0076 7.35518 12.0023C7.35518 12.9971 7.73943 13.9511 8.42339 14.6545C9.10736 15.3579 10.035 15.7531 11.0023 15.7531Z" fill="#1E1E20"/>
</svg>
