<svg width="15" height="11" viewBox="0 0 15 11" fill="none" xmlns="http://www.w3.org/2000/svg">
<path d="M1.6875 1.375C1.6875 1.01033 1.82578 0.660591 2.07192 0.402728C2.31806 0.144866 2.6519 0 3 0C3.3481 0 3.68194 0.144866 3.92808 0.402728C4.17422 0.660591 4.3125 1.01033 4.3125 1.375C4.3125 1.73967 4.17422 2.08941 3.92808 2.34727C3.68194 2.60513 3.3481 2.75 3 2.75C2.6519 2.75 2.31806 2.60513 2.07192 2.34727C1.82578 2.08941 1.6875 1.73967 1.6875 1.375ZM1.5 5.2471C1.26562 5.5221 1.125 5.88795 1.125 6.28571C1.125 6.68348 1.26562 7.04933 1.5 7.32433V5.2471ZM4.88437 4.03661C4.18828 4.68237 3.75 5.62768 3.75 6.67857C3.75 7.52076 4.03125 8.2942 4.5 8.90067V9.42857C4.5 9.86317 4.16484 10.2143 3.75 10.2143H2.25C1.83516 10.2143 1.5 9.86317 1.5 9.42857V8.77054C0.614063 8.32857 0 7.38326 0 6.28571C0 4.76585 1.17422 3.53571 2.625 3.53571H3.375C3.9375 3.53571 4.45781 3.71987 4.88437 4.03415V4.03661ZM10.5 9.42857V8.90067C10.9688 8.2942 11.25 7.52076 11.25 6.67857C11.25 5.62768 10.8117 4.68237 10.1156 4.03415C10.5422 3.71987 11.0625 3.53571 11.625 3.53571H12.375C13.8258 3.53571 15 4.76585 15 6.28571C15 7.38326 14.3859 8.32857 13.5 8.77054V9.42857C13.5 9.86317 13.1648 10.2143 12.75 10.2143H11.25C10.8352 10.2143 10.5 9.86317 10.5 9.42857ZM10.6875 1.375C10.6875 1.01033 10.8258 0.660591 11.0719 0.402728C11.3181 0.144866 11.6519 0 12 0C12.3481 0 12.6819 0.144866 12.9281 0.402728C13.1742 0.660591 13.3125 1.01033 13.3125 1.375C13.3125 1.73967 13.1742 2.08941 12.9281 2.34727C12.6819 2.60513 12.3481 2.75 12 2.75C11.6519 2.75 11.3181 2.60513 11.0719 2.34727C10.8258 2.08941 10.6875 1.73967 10.6875 1.375ZM13.5 5.2471V7.32679C13.7344 7.04933 13.875 6.68594 13.875 6.28817C13.875 5.8904 13.7344 5.52455 13.5 5.24955V5.2471ZM7.5 0C7.89782 0 8.27936 0.165561 8.56066 0.460261C8.84196 0.754961 9 1.15466 9 1.57143C9 1.9882 8.84196 2.3879 8.56066 2.6826C8.27936 2.9773 7.89782 3.14286 7.5 3.14286C7.10218 3.14286 6.72064 2.9773 6.43934 2.6826C6.15804 2.3879 6 1.9882 6 1.57143C6 1.15466 6.15804 0.754961 6.43934 0.460261C6.72064 0.165561 7.10218 0 7.5 0ZM5.625 6.67857C5.625 7.07634 5.76562 7.43973 6 7.71719V5.63996C5.76562 5.91741 5.625 6.2808 5.625 6.67857ZM9 5.63996V7.71964C9.23438 7.44219 9.375 7.07879 9.375 6.68103C9.375 6.28326 9.23438 5.91741 9 5.64241V5.63996ZM10.5 6.67857C10.5 7.77612 9.88594 8.72143 9 9.16339V10.2143C9 10.6489 8.66484 11 8.25 11H6.75C6.33516 11 6 10.6489 6 10.2143V9.16339C5.11406 8.72143 4.5 7.77612 4.5 6.67857C4.5 5.15871 5.67422 3.92857 7.125 3.92857H7.875C9.32578 3.92857 10.5 5.15871 10.5 6.67857Z" fill="#1E1E20"/>
</svg>
