  <svg
        width="15"
        height="11"
        fill="none"
        xmlns="http://www.w3.org/2000/svg"
      >
        <path
          d="M1.688 1.375c0-.365.138-.714.384-.972S2.652 0 3 0c.348 0 .682.145.928.403s.385.607.385.972-.139.714-.385.972-.58.403-.928.403c-.348 0-.682-.145-.928-.403a1.409 1.409 0 0 1-.385-.972ZM1.5 5.247c-.234.275-.375.641-.375 1.039 0 .397.14.763.375 1.038V5.247Zm3.384-1.21A3.595 3.595 0 0 0 3.75 6.679c0 .842.281 1.615.75 2.222v.528c0 .434-.335.785-.75.785h-1.5c-.415 0-.75-.35-.75-.785V8.77C.614 8.329 0 7.383 0 6.286c0-1.52 1.174-2.75 2.625-2.75h.75c.563 0 1.083.184 1.51.498v.003ZM10.5 9.429V8.9c.469-.607.75-1.38.75-2.222 0-1.051-.438-1.997-1.134-2.645a2.533 2.533 0 0 1 1.509-.498h.75c1.45 0 2.625 1.23 2.625 2.75 0 1.097-.614 2.043-1.5 2.485v.658c0 .434-.335.785-.75.785h-1.5c-.415 0-.75-.35-.75-.785Zm.188-8.054c0-.365.138-.714.384-.972S11.652 0 12 0c.348 0 .682.145.928.403s.384.607.384.972-.138.714-.384.972-.58.403-.928.403c-.348 0-.682-.145-.928-.403a1.41 1.41 0 0 1-.384-.972ZM13.5 5.247v2.08c.234-.278.375-.641.375-1.039 0-.398-.14-.763-.375-1.038v-.003ZM7.5 0c.398 0 .78.166 1.06.46.282.295.44.695.44 1.111 0 .417-.158.817-.44 1.112-.28.294-.662.46-1.06.46s-.78-.166-1.06-.46A1.61 1.61 0 0 1 6 1.57c0-.416.158-.816.44-1.11C6.72.165 7.101 0 7.5 0ZM5.625 6.679c0 .397.14.76.375 1.038V5.64c-.234.277-.375.64-.375 1.039ZM9 5.64v2.08c.234-.278.375-.641.375-1.039 0-.398-.14-.764-.375-1.039V5.64Zm1.5 1.039c0 1.097-.614 2.042-1.5 2.484v1.051c0 .435-.335.786-.75.786h-1.5c-.415 0-.75-.351-.75-.786v-1.05c-.886-.443-1.5-1.388-1.5-2.485 0-1.52 1.174-2.75 2.625-2.75h.75c1.45 0 2.625 1.23 2.625 2.75Z"
          fill="#4C7CF6"
        />
      </svg>