<svg width="17" height="17" viewBox="0 0 17 17" fill="none" xmlns="http://www.w3.org/2000/svg">
<path d="M3.57152 10.7426C3.57122 11.0957 3.46623 11.4408 3.26983 11.7343C3.07342 12.0278 2.79442 12.2564 2.46809 12.3913C2.14176 12.5263 1.78275 12.5614 1.43645 12.4923C1.09014 12.4233 0.772092 12.2531 0.522501 12.0033C0.27291 11.7535 0.102984 11.4353 0.0342028 11.0889C-0.0345782 10.7425 0.000874351 10.3836 0.136079 10.0574C0.271283 9.73113 0.500169 9.45233 0.793802 9.25617C1.08744 9.06002 1.43263 8.95532 1.78576 8.95532H3.57152V10.7426Z" fill="#FCFCFC"/>
<path d="M4.47168 10.7427C4.47168 10.2691 4.65982 9.81484 4.99472 9.47995C5.32961 9.14505 5.78383 8.95691 6.25744 8.95691C6.73105 8.95691 7.18527 9.14505 7.52016 9.47995C7.85506 9.81484 8.0432 10.2691 8.0432 10.7427V15.2143C8.0432 15.6879 7.85506 16.1421 7.52016 16.477C7.18527 16.8119 6.73105 17 6.25744 17C5.78383 17 5.32961 16.8119 4.99472 16.477C4.65982 16.1421 4.47168 15.6879 4.47168 15.2143V10.7427Z" fill="#FCFCFC"/>
<path d="M6.25739 3.57152C5.90426 3.57122 5.55915 3.46623 5.26569 3.26983C4.97222 3.07342 4.74357 2.79442 4.60864 2.46809C4.47372 2.14176 4.43857 1.78275 4.50764 1.43645C4.57672 1.09014 4.74692 0.772092 4.99672 0.522501C5.24652 0.27291 5.56472 0.102984 5.91108 0.0342028C6.25744 -0.0345782 6.61642 0.000874351 6.94264 0.136079C7.26885 0.271283 7.54766 0.500169 7.74381 0.793802C7.93997 1.08744 8.04466 1.43263 8.04466 1.78576V3.57152H6.25739Z" fill="#FCFCFC"/>
<path d="M6.25737 4.47156C6.73098 4.47156 7.18519 4.6597 7.52009 4.99459C7.85498 5.32949 8.04312 5.7837 8.04312 6.25732C8.04312 6.73093 7.85498 7.18514 7.52009 7.52004C7.18519 7.85493 6.73098 8.04308 6.25737 8.04308H1.78576C1.31215 8.04308 0.857931 7.85493 0.523037 7.52004C0.188142 7.18514 0 6.73093 0 6.25732C0 5.7837 0.188142 5.32949 0.523037 4.99459C0.857931 4.6597 1.31215 4.47156 1.78576 4.47156H6.25737Z" fill="#FCFCFC"/>
<path d="M13.4287 6.25739C13.429 5.90426 13.534 5.55915 13.7304 5.26569C13.9268 4.97222 14.2058 4.74357 14.5321 4.60864C14.8585 4.47372 15.2175 4.43857 15.5638 4.50764C15.9101 4.57672 16.2281 4.74692 16.4777 4.99672C16.7273 5.24652 16.8972 5.56472 16.966 5.91108C17.0348 6.25744 16.9994 6.61642 16.8642 6.94264C16.7289 7.26885 16.5001 7.54766 16.2064 7.74381C15.9128 7.93997 15.5676 8.04466 15.2145 8.04466H13.4287V6.25739Z" fill="#FCFCFC"/>
<path d="M12.5285 6.25737C12.5285 6.73098 12.3404 7.18519 12.0055 7.52009C11.6706 7.85498 11.2164 8.04312 10.7428 8.04312C10.2692 8.04312 9.81496 7.85498 9.48007 7.52009C9.14517 7.18519 8.95703 6.73098 8.95703 6.25737V1.78576C8.95703 1.31215 9.14517 0.857931 9.48007 0.523037C9.81496 0.188142 10.2692 0 10.7428 0C11.2164 0 11.6706 0.188142 12.0055 0.523037C12.3404 0.857931 12.5285 1.31215 12.5285 1.78576V6.25737Z" fill="#FCFCFC"/>
<path d="M10.7428 13.4285C11.096 13.4288 11.4411 13.5338 11.7345 13.7302C12.028 13.9266 12.2567 14.2056 12.3916 14.5319C12.5265 14.8582 12.5617 15.2172 12.4926 15.5635C12.4235 15.9098 12.2533 16.2279 12.0035 16.4775C11.7537 16.7271 11.4355 16.897 11.0892 16.9658C10.7428 17.0346 10.3838 16.9991 10.0576 16.8639C9.73138 16.7287 9.45257 16.4998 9.25642 16.2062C9.06026 15.9125 8.95557 15.5674 8.95557 15.2142V13.4285H10.7428Z" fill="#FCFCFC"/>
<path d="M10.7428 12.5284C10.2692 12.5284 9.81496 12.3403 9.48007 12.0054C9.14517 11.6705 8.95703 11.2163 8.95703 10.7427C8.95703 10.2691 9.14517 9.81484 9.48007 9.47995C9.81496 9.14505 10.2692 8.95691 10.7428 8.95691H15.2144C15.688 8.95691 16.1422 9.14505 16.4771 9.47995C16.812 9.81484 17.0002 10.2691 17.0002 10.7427C17.0002 11.2163 16.812 11.6705 16.4771 12.0054C16.1422 12.3403 15.688 12.5284 15.2144 12.5284H10.7428Z" fill="#FCFCFC"/>
</svg>
