<svg width="18" height="17" viewBox="0 0 18 17" fill="none" xmlns="http://www.w3.org/2000/svg">
<path d="M12.4252 6.4H17.1852C17.6354 6.4 18 6.73969 18 7.15938V11.2062C17.9997 11.5734 17.922 11.9369 17.7713 12.2761C17.6207 12.6152 17.4001 12.9233 17.1222 13.1827C16.8442 13.4422 16.5143 13.6479 16.1513 13.7881C15.7883 13.9283 15.3993 14.0003 15.0066 14H14.9934C14.6007 14.0003 14.2117 13.9283 13.8487 13.7881C13.4857 13.6479 13.1558 13.4422 12.8778 13.1827C12.5999 12.9233 12.3793 12.6152 12.2287 12.2761C12.078 11.9369 12.0003 11.5734 12 11.2062V6.79877C12 6.57846 12.1909 6.4 12.4252 6.4ZM15.6437 5.6C16.7073 5.6 17.5709 4.79385 17.5709 3.80062C17.5709 2.80615 16.7073 2 15.6424 2C14.5774 2 13.7139 2.80615 13.7139 3.80062C13.7139 4.79385 14.5774 5.6 15.6424 5.6H15.6437Z" fill="#FCFCFC"/>
<path d="M9.70412 5.525C10.0529 5.52552 10.3985 5.45448 10.7209 5.31595C11.0434 5.17742 11.3364 4.9741 11.5834 4.71762C11.8303 4.46115 12.0263 4.15653 12.1601 3.82117C12.294 3.48582 12.363 3.1263 12.3634 2.76316C12.3632 2.39979 12.2942 2.04003 12.1604 1.70444C12.0265 1.36885 11.8305 1.06402 11.5834 0.807383C11.3363 0.550749 11.043 0.347346 10.7203 0.208809C10.3976 0.0702714 10.0519 -0.00068263 9.70287 4.94973e-06C9.35414 -0.00033867 9.00877 0.0708261 8.68647 0.209436C8.36417 0.348046 8.07125 0.551386 7.82443 0.807847C7.57761 1.06431 7.38174 1.36887 7.24798 1.70414C7.11423 2.0394 7.04521 2.39882 7.04488 2.76185C7.04488 4.28793 8.23444 5.525 9.70287 5.525H9.70412ZM13.2489 6.375H5.74981C5.54646 6.38014 5.35339 6.46911 5.21301 6.62236C5.07263 6.77561 4.99643 6.98061 5.00115 7.19231V12.0962C4.97385 13.3672 5.43223 14.5975 6.27563 15.517C7.11904 16.4364 8.2785 16.9698 9.49937 17C10.7205 16.9702 11.8802 16.4369 12.7239 15.5174C13.5676 14.5979 14.0261 13.3674 13.9988 12.0962V7.19231C14.0012 7.08738 13.9836 6.98299 13.9472 6.88512C13.9108 6.78725 13.8562 6.69781 13.7865 6.62191C13.7169 6.54601 13.6336 6.48514 13.5413 6.44277C13.4491 6.40041 13.3497 6.37738 13.2489 6.375Z" fill="#FCFCFC"/>
<path d="M9.9986 6.00145V13.1386C9.99677 13.3667 9.90847 13.5849 9.75277 13.7461C9.59707 13.9073 9.38648 13.9985 9.16647 14H5.24037C5.08158 13.4604 5.00065 12.8993 5.00023 12.3351V6.90337C4.99763 6.78739 5.0171 6.67202 5.05752 6.56384C5.09794 6.45567 5.15852 6.35681 5.23579 6.27292C5.31307 6.18903 5.40553 6.12175 5.50789 6.07492C5.61025 6.02809 5.72051 6.00263 5.83236 6H10L9.9986 6.00145Z" fill="#4478FF"/>
<path opacity="0.2" d="M9 4.47907V5C8.55648 4.93823 8.14405 4.81542 7.79644 4.64161C7.44883 4.46781 7.17591 4.24794 7 4H8.18771C8.40281 4.00063 8.6088 4.05131 8.7609 4.14102C8.913 4.23072 8.99892 4.35221 9 4.47907Z" fill="#FCFCFC"/>
<path d="M0.750105 4H8.24989C8.66453 4 9 4.33608 9 4.75021V12.2498C9 12.3484 8.98059 12.4461 8.94288 12.5372C8.90517 12.6283 8.84989 12.711 8.78022 12.7807C8.71055 12.8504 8.62785 12.9056 8.53685 12.9433C8.44585 12.9809 8.34834 13.0002 8.24989 13H0.748848C0.650508 13 0.553131 12.9806 0.462276 12.9429C0.371422 12.9052 0.28887 12.8499 0.219333 12.7803C0.149796 12.7106 0.0946359 12.6279 0.0570027 12.5369C0.0193696 12.4459 0 12.3483 0 12.2498V4.75021C0 4.33482 0.335474 4 0.750105 4Z" fill="#FCFCFC"/>
<path d="M6 6.81332H4.48122V11H3.51369V6.81332H2V6H5.99873L6 6.81332Z" fill="#4478FF"/>
</svg>
