<svg width="30" height="30" viewBox="0 0 30 30" fill="none" xmlns="http://www.w3.org/2000/svg">
<circle cx="15" cy="15" r="15" fill="#BCD4FF"/>
<mask id="mask0_508_863" style="mask-type:alpha" maskUnits="userSpaceOnUse" x="0" y="0" width="30" height="30">
<circle cx="15" cy="15" r="15" fill="#BCD4FF"/>
</mask>
<g mask="url(#mask0_508_863)">
<path d="M14.5 20C16.0913 20 17.6174 19.3679 18.7426 18.2426C19.8679 17.1174 20.5 15.5913 20.5 14C20.5 12.4087 19.8679 10.8826 18.7426 9.75736C17.6174 8.63214 16.0913 8 14.5 8C12.9087 8 11.3826 8.63214 10.2574 9.75736C9.13214 10.8826 8.5 12.4087 8.5 14C8.5 15.5913 9.13214 17.1174 10.2574 18.2426C11.3826 19.3679 12.9087 20 14.5 20ZM12.3578 22.25C7.74063 22.25 4 25.9906 4 30.6078C4 31.3766 4.62344 32 5.39219 32H23.6078C24.3766 32 25 31.3766 25 30.6078C25 25.9906 21.2594 22.25 16.6422 22.25H12.3578Z" fill="#141C57"/>
</g>
</svg>
