<svg width="14" height="14" viewBox="0 0 14 14" fill="none" xmlns="http://www.w3.org/2000/svg">
<path d="M10.1816 7.49044C10.1825 6.96257 10.3514 6.44869 10.6638 6.02319C10.9762 5.59768 11.4159 5.28263 11.9192 5.12363C11.7242 4.76441 11.4556 4.45037 11.131 4.20201C10.8064 3.95365 10.433 3.77656 10.0353 3.68231C9.63755 3.58807 9.22442 3.57878 8.82286 3.65506C8.42131 3.73133 8.04036 3.89146 7.70489 4.12498C7.55308 4.21263 7.38087 4.25877 7.20557 4.25877C7.03027 4.25877 6.85805 4.21263 6.70624 4.12498C6.34313 3.89467 5.93591 3.7428 5.51067 3.67908C5.08544 3.61537 4.65158 3.64123 4.23692 3.755C3.82226 3.86877 3.43596 4.06795 3.10278 4.33975C2.7696 4.61155 2.4969 4.94999 2.30217 5.33335C1.74586 6.3579 1.55563 7.54155 1.7629 8.68883C1.9312 10.2645 2.6118 11.7415 3.70029 12.8932C4.05911 13.2336 4.52715 13.4355 5.02098 13.4629C5.51481 13.4903 6.00234 13.3415 6.39666 13.043C6.62357 12.8751 6.89836 12.7845 7.1806 12.7845C7.46284 12.7845 7.73763 12.8751 7.96454 13.043C8.34294 13.3486 8.81741 13.5104 9.30373 13.4994C9.79004 13.4884 10.2567 13.3055 10.621 12.983C11.4431 12.1531 12.0292 11.1189 12.3187 9.98708C11.7188 9.90415 11.1701 9.60433 10.7764 9.1443C10.3826 8.68427 10.171 8.0959 10.1816 7.49044Z" stroke="#4C7CF6" stroke-linecap="round" stroke-linejoin="round"/>
<path d="M8.18427 1.99798L9.68225 0.5" stroke="#4C7CF6" stroke-linecap="round" stroke-linejoin="round"/>
</svg>
