<svg width="14" height="14" viewBox="0 0 14 14" fill="none" xmlns="http://www.w3.org/2000/svg">
<g clip-path="url(#clip0_1222_41424)">
<path d="M11.36 5.8299H7.87002C7.80219 5.82988 7.73505 5.8434 7.67251 5.86965C7.60997 5.8959 7.5533 5.93437 7.50581 5.98279C7.45832 6.03121 7.42096 6.08862 7.39593 6.15166C7.3709 6.21469 7.35869 6.28209 7.36002 6.3499V7.7599C7.36002 7.89516 7.41375 8.02488 7.50939 8.12052C7.60504 8.21616 7.73476 8.2699 7.87002 8.2699H10.16C10.1672 8.65641 10.0929 9.04011 9.94183 9.39596C9.79077 9.75181 9.56637 10.0718 9.28328 10.3351C9.0002 10.5983 8.66478 10.799 8.29893 10.9239C7.93307 11.0488 7.545 11.0951 7.16002 11.0599C4.92002 11.0599 3.84002 9.1599 3.84002 6.9999C3.84002 4.8399 5.00002 2.9399 7.16002 2.9399C8.11362 2.90825 9.04803 3.21264 9.80002 3.7999C9.86012 3.83923 9.92814 3.86487 9.99925 3.875C10.0704 3.88513 10.1428 3.8795 10.2115 3.85851C10.2802 3.83752 10.3435 3.80168 10.3968 3.75354C10.4501 3.70539 10.4922 3.64611 10.52 3.5799L11.15 2.1399C11.2018 2.03376 11.2152 1.91293 11.1878 1.79803C11.1605 1.68313 11.0941 1.58129 11 1.5099C9.85329 0.824193 8.53573 0.477466 7.20002 0.509896C3.56002 0.499896 1.08002 3.3299 1.08002 6.9999C1.08002 10.6699 3.57002 13.4999 7.16002 13.4999C10.75 13.4999 12.92 10.9399 12.92 7.4999C12.92 6.3999 12.48 5.8299 11.36 5.8299Z" stroke="#4C7CF6" stroke-linecap="round" stroke-linejoin="round"/>
</g>
<defs>
<clipPath id="clip0_1222_41424">
<rect width="14" height="14" fill="white"/>
</clipPath>
</defs>
</svg>
